<svg xmlns="http://www.w3.org/2000/svg" viewBox="0 0 523.27 558.12"><defs><style>.cls-1{fill:#fff;}</style></defs><title>Asset 2</title><g id="Layer_2" data-name="Layer 2"><g id="Layer_7" data-name="Layer 7"><polygon class="cls-1" points="445.94 323.13 451.11 313.38 393.57 255.83 393.26 254.66 392.59 254.66 362.72 254.66 445.94 323.13"/><polygon class="cls-1" points="335.21 65.73 269.12 41.7 295.58 140.52 335.21 65.73"/><polygon class="cls-1" points="302.09 164.86 369.15 164.86 343.4 68.75 338.93 67.1 297.07 146.09 302.09 164.86"/><polygon class="cls-1" points="375.27 187.55 370.21 168.78 339.87 168.78 375.27 187.55"/><polygon class="cls-1" points="391.22 250.74 392.2 250.74 391.49 248.19 382.91 216.13 364.57 250.74 391.22 250.74"/><polygon class="cls-1" points="325.13 250.86 325.1 250.74 325.02 250.74 325.13 250.86"/><path class="cls-1" d="M436.49,362.21a7.05,7.05,0,0,1,2,3.53h65L454,316.28l-22,41.47Z"/><path class="cls-1" d="M438.49,369.66a7.17,7.17,0,0,1-2,3.65l-51.9,51.89L420,443.94l3.49,1.84,39,20.7,45.07-96.69h0l.08-.12h-.18v0Z"/><polygon class="cls-1" points="303.14 168.78 325.1 250.74 360.14 250.74 381.42 210.56 376.64 192.73 331.44 168.78 303.14 168.78"/><polygon class="cls-1" points="360.69 258.07 357.59 255.52 356.57 254.66 328.94 254.66 347.95 273.67 350.89 276.61 429.12 354.85 444.06 326.66 360.69 258.07"/><polygon class="cls-1" points="362.49 254.66 362.72 254.66 362.57 254.5 362.49 254.66"/><path class="cls-1" d="M455.74,480.82,460.79,470,421.6,449.23l-16.74,31.59h-4.47l17.72-33.43-36.38-19.33L329,480.82H307a5.65,5.65,0,0,1,.9-1.1l59.34-59.34,2.86-2.86L418,369.66l1.92-1.92-2-2L343.2,291.07l-2.9-2.9-15.79-15.79-13.45-13.45-1.13-4.27-1.06-3.92-1.45-5.45-20.5-76.51-.63-2.31-.43-1.61-1.06-4L252.5,40.33,185,64.91v-62A3,3,0,0,0,182,0H117.86A3,3,0,0,0,115,2.19a3.06,3.06,0,0,0,1.37,3.34l62.72,35.9V67L111.87,91.48,96.7,264.58l17.83-17.84a7.91,7.91,0,0,1,6.51-4.35,9.37,9.37,0,0,1,1.06,0l117.51,7.84-114.06,7.6-31,31L77.33,306l-61.69,61.7,112,112a5.65,5.65,0,0,1,.9,1.1H0v3.92H523.27v-3.92ZM255.05,406.31c-.55,20-1.41,40.06-3.06,60.09-1.6-20-2.47-40.06-3.05-60.09-.08-2.47-.08-5.14-.28-7.41a29.56,29.56,0,0,0-1.13-6.66,31.44,31.44,0,0,0-6.28-11.76,30.92,30.92,0,0,0-47,0A30.52,30.52,0,0,0,188,392.24a29.52,29.52,0,0,0-1.1,6.66c-.2,2.27-.2,4.94-.31,7.41-.55,20-1.42,40.06-3,60.09-1.65-20-2.47-40.06-3.06-60.09,0-2.55-.24-4.9-.16-7.64a23,23,0,0,1,.28-4.08,28.39,28.39,0,0,1,.74-4.08,37.46,37.46,0,0,1,72.87,0,28.39,28.39,0,0,1,.74,4.08,27.5,27.5,0,0,1,.32,4.08C255.29,401.41,255.13,403.76,255.05,406.31Z"/><polygon class="cls-1" points="2.51 518.22 22.62 518.22 6.74 557.18 13.84 557.18 29.67 518.22 29.67 511.98 2.51 511.98 2.51 518.22"/><path class="cls-1" d="M62.48,512H53l-14.7,45.2h6.82L48.45,547H67l3.33,10.19h6.82Zm-12,28.85,7.25-22.3L65,540.83Z"/><path class="cls-1" d="M103.67,542.71c0,1.3,0,2.43-.07,3.41a7.47,7.47,0,0,1-.63,2.59,5,5,0,0,1-2.39,2.43,7.17,7.17,0,0,1-3.1.74,6,6,0,0,1-4-1.48,6.21,6.21,0,0,1-2.27-3.57l-6.51,1.53a13.57,13.57,0,0,0,4.67,7.09,13.14,13.14,0,0,0,8.35,2.63,14.09,14.09,0,0,0,6.43-1.45,10.78,10.78,0,0,0,4.7-4.55,9.14,9.14,0,0,0,1.14-2.86,17.42,17.42,0,0,0,.35-2.94V512h-6.67Z"/><path class="cls-1" d="M145.81,512h-9.45l-14.66,45.2h6.79L131.82,547h18.54l3.33,10.19h6.82Zm-12,28.85L141,518.57l7.29,22.26Z"/><path class="cls-1" d="M197.86,539.66a10.94,10.94,0,0,0,4.94-3.92,15.62,15.62,0,0,0,2.75-9.29,16.9,16.9,0,0,0-1.26-6.67,12.18,12.18,0,0,0-3.76-5,13.32,13.32,0,0,0-6.31-2.58c-.59-.08-1.18-.16-1.84-.2s-1.18,0-1.65,0H172.46v45.2h6.59V541h12l7.88,16.23h7.49Zm-4.5-5.22a8.44,8.44,0,0,1-1.45.24c-.51,0-1,.08-1.42.08H179.05V518.18h11.44c.44,0,.91,0,1.42,0a5.39,5.39,0,0,1,1.45.27,6.52,6.52,0,0,1,3.21,1.72,7.68,7.68,0,0,1,1.76,2.94,10.57,10.57,0,0,1,.55,3.3,10.8,10.8,0,0,1-.55,3.33,7.53,7.53,0,0,1-1.76,2.94A6.52,6.52,0,0,1,193.36,534.44Z"/><path class="cls-1" d="M259.56,512h-4.47l-16,45.2h3.8l4-11.37h20.81l4,11.37h3.84ZM248.11,542.4l9.18-26,9.21,26Z"/><path class="cls-1" d="M325.88,534.36h-15v3.3h11.21a23.77,23.77,0,0,1-1.77,8.93,12.8,12.8,0,0,1-5,5.92,16.52,16.52,0,0,1-8.7,2.08,16,16,0,0,1-9.29-2.59,15.11,15.11,0,0,1-5.56-7A25.46,25.46,0,0,1,290,534.6a28.52,28.52,0,0,1,1.89-10.43,15.45,15.45,0,0,1,5.56-7,15.83,15.83,0,0,1,9.21-2.55,14.8,14.8,0,0,1,8.7,2.55,13.92,13.92,0,0,1,5.1,6.66l3.57-1.1a16.89,16.89,0,0,0-6.2-8.42,18.79,18.79,0,0,0-11.25-3.22,20.12,20.12,0,0,0-11.17,3,18.51,18.51,0,0,0-6.89,8.23,29.33,29.33,0,0,0-2.4,12.31,32.33,32.33,0,0,0,1.34,9.6,21.59,21.59,0,0,0,4,7.41,17.84,17.84,0,0,0,6.42,4.82,21.17,21.17,0,0,0,8.74,1.69,20,20,0,0,0,11-2.75,16.53,16.53,0,0,0,6.39-7.56A26.16,26.16,0,0,0,326,537.07c0-.28,0-.67,0-1.18A9.86,9.86,0,0,0,325.88,534.36Z"/><polygon class="cls-1" points="341.13 557.18 369.07 557.18 369.07 553.65 344.77 553.65 344.77 536.17 365.31 536.17 365.31 532.68 344.77 532.68 344.77 515.51 369.07 515.51 369.07 511.98 341.13 511.98 341.13 557.18"/><polygon class="cls-1" points="415.52 550.75 389.34 511.98 385.73 511.98 385.73 557.18 389.34 557.18 389.34 518.33 415.52 557.18 419.17 557.18 419.17 511.98 415.52 511.98 415.52 550.75"/><path class="cls-1" d="M445.51,517.12a15.81,15.81,0,0,1,9.21-2.55c4.27,0,7.72,1.14,10.34,3.37a17,17,0,0,1,5.41,9l3.73-.91a20.34,20.34,0,0,0-6.67-10.93c-3.29-2.71-7.56-4.08-12.81-4.08a20.33,20.33,0,0,0-11.33,3,18.71,18.71,0,0,0-6.9,8.31,33.64,33.64,0,0,0,0,24.5,18.71,18.71,0,0,0,6.9,8.31,20.33,20.33,0,0,0,11.33,3c5.25,0,9.52-1.37,12.81-4.08a20.33,20.33,0,0,0,6.67-10.94l-3.73-.9a17.14,17.14,0,0,1-5.41,9c-2.62,2.23-6.07,3.37-10.34,3.37a16,16,0,0,1-9.29-2.59,15.52,15.52,0,0,1-5.61-7A26.88,26.88,0,0,1,438,534.6a27.9,27.9,0,0,1,1.92-10.43A15.59,15.59,0,0,1,445.51,517.12Z"/><polygon class="cls-1" points="500.65 533.93 487.96 511.98 483.76 511.98 498.85 538.09 498.85 557.18 502.46 557.18 502.46 538.09 517.51 511.98 513.32 511.98 500.65 533.93"/></g></g></svg>